<svg xmlns="http://www.w3.org/2000/svg" version="1.2" viewBox="422.12 460 475.38 76.04">
	<style>
		.s0 { opacity: 1;fill: #000000 } 
	</style>
	<path id="Path 0" fill-rule="evenodd" class="s0" d="m436.5 460c10.07 0 10.62 0.11 13.46 2.75 2.22 2.07 5.36 8.83 12.65 27.25 5.33 13.48 10.19 25.08 10.79 25.8 0.9 1.07 1.32 1.07 2.33 0 0.67-0.72 5.68-12.32 11.13-25.8 5.45-13.48 10.97-25.72 12.27-27.2 2.28-2.61 2.76-2.71 12.62-2.75 9.63-0.05 10.4 0.1 15.25 4.95l-0.5 69.5h-15l-0.5-26.92c-0.38-20.34-0.81-27-1.75-27.25-0.79-0.21-4.04 6.42-8.8 17.92-4.15 10.04-8.74 21.17-10.2 24.75-1.46 3.58-3.88 7.74-5.37 9.25-2.5 2.52-3.36 2.75-10.3 2.75-6.45 0-7.96-0.34-10.11-2.25-1.52-1.36-4.91-8-8.54-16.75-3.31-7.98-8.03-19.56-10.48-25.75-2.76-6.98-4.92-11.12-5.7-10.92-0.95 0.26-1.32 6.76-1.54 27.25-0.16 14.81-0.69 27.37-1.17 27.92-0.5 0.58-3.73 0.79-14.54 0l-0.27-35.24c-0.26-34.19-0.2-35.29 1.75-37.25 1.77-1.76 3.33-2.01 12.52-2.01zm175 0.5v13.85l-22-0.29c-14.13-0.19-23.34 0.11-25.75 0.82-2.56 0.76-4.23 2.08-5.25 4.12-0.83 1.65-1.5 4.57-1.5 6.5 0 1.93 0.11 3.59 0.25 3.71 0.14 0.11 11.95 0.45 52.25 1.29v13l-25.5 0.22c-21.52 0.18-25.7 0.45-26.75 1.75-0.81 0.99-1.02 2.85-0.59 5.28 0.39 2.16 1.87 4.91 6.34 9.25h24c23 0 24.04 0.08 25 2 0.55 1.1 1.02 3.91 1.04 6.25 0.03 2.34-0.53 4.82-1.25 5.51-0.98 0.96-7.78 1.19-28.79 1-27.24-0.26-27.54-0.28-32-2.76-3.68-2.05-5.13-3.76-11.5-16.45v-18.03c0-12.67 0.41-19.21 1.37-22.02 0.76-2.2 2.35-5.51 3.55-7.36 1.42-2.2 4.05-4.18 7.62-5.75 5.37-2.35 5.91-2.38 59.46-1.89zm85 0l0.27 6.5c0.19 4.45-0.13 6.73-1 7.23-0.7 0.41-7.23 0.75-14.52 0.75-10.88 0.02-13.34 0.29-13.75 1.52-0.27 0.82-0.5 14.1-0.5 29.5 0 27-0.07 28.04-2 29-1.1 0.55-4.02 1-6.5 1-2.48 0-5.4-0.45-6.5-1-1.93-0.96-2-1.99-1.98-29.25 0.01-21.48-0.29-28.55-1.25-29.52-0.9-0.89-5.14-1.26-14.52-1.25-12.26 0.02-13.32-0.13-14.25-1.98-0.55-1.1-1.04-3.6-1.09-5.57-0.05-1.96 0.42-4.44 1.04-5.51 1.09-1.88 2.39-1.94 76.55-1.42zm41.86-0.48c25.79 0.02 29.6 0.23 33.14 1.81 2.2 0.98 5.18 3.34 6.61 5.23 1.44 1.89 3.13 5.01 3.77 6.94 0.63 1.93 1.14 7.1 1.13 11.5-0.02 6.42-0.52 9.04-2.52 13.25-1.72 3.63-3.73 6.02-6.49 7.75-2.2 1.37-4 2.95-4 3.5 0 0.55 3.38 5.95 7.5 12 4.13 6.05 7.5 11.45 7.5 12 0 0.61-3.58 0.9-18.5 0.5l-7.5-11.28c-4.13-6.21-8.17-11.68-9-12.16-0.83-0.47-6.67-0.63-13-0.34-6.33 0.29-12.07 1.04-12.77 1.66-0.85 0.74-1.35 4.63-1.73 22.12l-7 0.27c-3.85 0.14-7.37-0.08-7.82-0.5-0.46-0.42-0.91-16.65-1-36.06-0.14-28.57 0.08-35.57 1.18-36.75 1.14-1.22 6.21-1.46 30.5-1.44zm-15.6 25.43c0.1 5.91 0.6 9.49 1.45 10.31 0.96 0.94 5.83 1.19 19.13 1l17.84-0.26c4.27-4.87 4.82-6.64 4.82-10.5 0-2.75-0.45-5.9-1-7-0.55-1.1-2.58-2.68-4.5-3.5-2.62-1.12-7.48-1.5-19.3-1.5-10.84 0-16.24 0.38-17.2 1.2-1.03 0.88-1.36 3.58-1.24 10.25zm88.74-24.95l0.23 36.5c0.17 27.71-0.07 36.81-1 37.79-0.69 0.73-3.34 1.28-5.98 1.25-2.61-0.02-5.65-0.49-6.75-1.04-1.94-0.97-2-2.09-2.17-37.33-0.09-19.99 0.23-36.65 0.71-37.04 0.48-0.39 4.04-0.58 14.96-0.13zm86 0v14l-23.5 0.53c-15.15 0.35-24.48 0.97-26.25 1.75-1.51 0.67-3.54 2.44-4.5 3.92-1.37 2.13-1.82 5.41-2.08 15.25-0.25 9.63 0.04 13.48 1.24 16.55 0.86 2.2 2.58 4.67 3.83 5.5 1.8 1.19 7.28 1.6 51.26 2.5v14h-28c-26.57 0-28.2-0.11-32-2.11-2.2-1.17-5.24-3.53-6.75-5.25-1.51-1.73-3.48-5.73-4.37-8.89-1.3-4.63-1.53-9.16-1.17-23.25 0.33-13.17 0.83-18.37 2.03-21 0.88-1.93 3.1-4.91 4.93-6.63 1.83-1.72 4.46-3.71 5.83-4.42 1.38-0.72 3.85-1.63 5.5-2.03 1.65-0.4 14.48-0.66 54-0.42z"/>
</svg>