<svg xmlns="http://www.w3.org/2000/svg" version="1.2" viewBox="127.5 358.17 251.93 211.83">
	<style>
		.s0 { opacity: 1;fill: #000000 } 
	</style>
	<path id="Path 0" class="s0" d="m351.49 367.68c-3.77 5.4-8.6 12.3-10.74 15.32-2.15 3.02-6.43 9.1-9.52 13.5-3.1 4.4-9.05 12.95-13.23 19-4.18 6.05-20.36 29.23-35.95 51.5-15.59 22.27-33.84 48.37-40.54 58-6.71 9.62-16.11 23.35-20.88 30.5-4.78 7.15-8.67 13.34-8.66 13.75 0.02 0.41 37.6 0.75 83.53 0.75 45.93 0 83.66-0.34 83.86-0.75 0.19-0.41 0-13.58-0.44-29.25-0.61-22.03-1.22-30.54-2.71-37.5-1.06-4.95-3.62-13.27-5.68-18.5-2.06-5.23-5.68-13.1-8.04-17.5-2.37-4.4-6.29-10.7-8.72-14-2.43-3.3-7.76-9.55-11.84-13.9l-7.43-7.9c-11.02 19.22-18.63 33.12-24.01 43.3-5.38 10.18-13.04 24.57-17.01 32-3.97 7.42-10.87 20.59-15.35 29.25-6.15 11.92-8.68 15.89-10.38 16.31-1.24 0.31-4.05 0.42-6.24 0.25-2.56-0.2-4.11-0.85-4.31-1.81-0.17-0.83 2.93-7.58 6.88-15 3.95-7.42 9.99-18.67 13.42-25 3.43-6.32 10.97-20.27 16.74-31 5.77-10.73 14.02-26.02 18.32-34 4.3-7.98 10.47-19.45 13.71-25.5 3.25-6.05 10.42-19.55 15.95-30 5.53-10.45 11.58-21.7 13.45-25 1.87-3.3 3.24-6.14 3.04-6.32-0.2-0.18-3.45 4.1-7.22 9.5zm-109.99 33.45c-4.4 0.47-12.05 1.95-17 3.28-4.95 1.32-13.28 4.27-18.5 6.55-5.23 2.27-13.78 6.99-19 10.48-5.23 3.49-13.57 10.33-18.55 15.2-4.98 4.87-11.74 12.46-15.02 16.86-3.28 4.4-8.39 12.73-11.35 18.5-2.97 5.77-6.46 13.65-7.76 17.5-1.3 3.85-3.35 11.95-4.55 18-1.9 9.54-2.2 14.39-2.23 36.5l-0.04 25.5 70 0.44c22.76-33.67 37.25-54.69 46.88-68.44 9.63-13.75 21.74-31.07 26.91-38.5 5.16-7.43 12.69-18.23 16.73-24 4.03-5.77 9.73-13.99 12.66-18.25 2.93-4.26 5.32-8.09 5.33-8.5 0.01-0.41-3.03-1.94-6.75-3.4-3.72-1.46-9.24-3.37-12.26-4.25-3.02-0.87-10-2.26-15.5-3.09-5.5-0.82-12.7-1.44-16-1.37-3.3 0.07-9.6 0.51-14 0.99z"/>
</svg>